<?xml version="1.0" encoding="UTF-8" standalone="no"?>
<svg
   xmlns:dc="http://purl.org/dc/elements/1.1/"
   xmlns:cc="http://creativecommons.org/ns#"
   xmlns:rdf="http://www.w3.org/1999/02/22-rdf-syntax-ns#"
   xmlns:svg="http://www.w3.org/2000/svg"
   xmlns="http://www.w3.org/2000/svg"
   xmlns:sodipodi="http://sodipodi.sourceforge.net/DTD/sodipodi-0.dtd"
   xmlns:inkscape="http://www.inkscape.org/namespaces/inkscape"
   height="30px"
   style="enable-background:new 0 0 30 30;"
   version="1.1"
   viewBox="0 0 30 30"
   width="30px"
   xml:space="preserve"
   id="svg14"
   sodipodi:docname="1494168813_chemical_reaction.svg"
   inkscape:version="0.92.1 r15371"><metadata
     id="metadata20"><rdf:RDF><cc:Work
         rdf:about=""><dc:format>image/svg+xml</dc:format><dc:type
           rdf:resource="http://purl.org/dc/dcmitype/StillImage" /></cc:Work></rdf:RDF></metadata><defs
     id="defs18" /><sodipodi:namedview
     pagecolor="#ffffff"
     bordercolor="#666666"
     borderopacity="1"
     objecttolerance="10"
     gridtolerance="10"
     guidetolerance="10"
     inkscape:pageopacity="0"
     inkscape:pageshadow="2"
     inkscape:window-width="1639"
     inkscape:window-height="816"
     id="namedview16"
     showgrid="false"
     inkscape:zoom="11.125147"
     inkscape:cx="13.314168"
     inkscape:cy="16.369263"
     inkscape:window-x="0"
     inkscape:window-y="27"
     inkscape:window-maximized="0"
     inkscape:current-layer="chemical_reaction" /><g
     id="chemical_reaction"><g
       id="g10"><path
         d="M12.757,19.825l0.768,0.769l0.707-0.707l-0.768-0.769L6.926,12.58c-1.576-1.576-1.576-4.14,0-5.716    C7.689,6.1,8.705,5.68,9.784,5.68s2.094,0.42,2.858,1.184l0.707-0.707C12.397,5.204,11.131,4.68,9.784,4.68    S7.171,5.204,6.219,6.157c-1.966,1.966-1.966,5.165,0,7.13L12.757,19.825z"
         id="path2"
         style="fill:#37474f;fill-opacity:1;stroke:none;stroke-opacity:1" /><path
         d="M19.953,12.761l1.442,0.006l0.004-1l-3.16-0.013l0.014,3.16l1-0.005l-0.007-1.441l3.619,3.617    c1.576,1.577,1.576,4.141,0,5.717s-4.142,1.574-5.716,0l-0.729-0.729l-0.707,0.707l0.728,0.729    c0.983,0.982,2.274,1.474,3.565,1.474s2.582-0.491,3.565-1.474c1.966-1.966,1.966-5.164,0-7.131L19.953,12.761z"
         id="path4"
         style="fill:#c62828;fill-opacity:1" /><path
         d="M11.188,9.977l-1-0.004l-0.013,3.16l3.16-0.013l-0.004-1l-1.442,0.006l5.262-5.262C17.914,6.1,18.929,5.68,20.009,5.68    c1.079,0,2.094,0.42,2.857,1.184c0.764,0.763,1.185,1.778,1.185,2.858c0,1.079-0.421,2.094-1.185,2.858l-0.414,0.415l0.707,0.707    l0.414-0.415c0.953-0.952,1.478-2.218,1.478-3.565s-0.525-2.613-1.478-3.565c-0.952-0.953-2.218-1.477-3.564-1.477    c-1.348,0-2.613,0.524-3.565,1.477l-5.262,5.262L11.188,9.977z"
         id="path6"
         style="fill:#2e7d32;fill-opacity:1" /><path
         d="M19.515,15.931l-6.871,6.872c-1.576,1.576-4.14,1.576-5.716,0c-1.575-1.576-1.575-4.141,0-5.716l0.746-0.746l-0.707-0.707    l-0.746,0.745c-1.965,1.966-1.965,5.165,0,7.131c0.983,0.982,2.274,1.475,3.565,1.475s2.583-0.492,3.565-1.475l6.871-6.872    L19.515,15.931z"
         id="path8"
         style="fill:#37474f;fill-opacity:1" /></g></g><g
     id="Layer_1" /></svg>