<svg style="enable-background:new 0 0 30 30" xmlns="http://www.w3.org/2000/svg" xml:space="preserve" height="30px" width="30px" version="1.1" viewBox="0 0 30 30"><g id="chemical_reaction"><g><path fill="#37474f" d="m12.757 19.825l0.768 0.769 0.707-0.707-0.768-0.769-6.538-6.538c-1.576-1.576-1.576-4.14 0-5.716 0.763-0.764 1.779-1.184 2.858-1.184s2.094 0.42 2.858 1.184l0.707-0.707c-0.952-0.953-2.218-1.477-3.565-1.477s-2.613 0.524-3.565 1.477c-1.966 1.966-1.966 5.165 0 7.13l6.538 6.538z"/><path fill="#c62828" d="m19.953 12.761l1.442 0.006 0.004-1-3.16-0.013 0.014 3.16 1-0.005-0.007-1.441 3.619 3.617c1.576 1.577 1.576 4.141 0 5.717s-4.142 1.574-5.716 0l-0.729-0.729-0.707 0.707 0.728 0.729c0.983 0.982 2.274 1.474 3.565 1.474s2.582-0.491 3.565-1.474c1.966-1.966 1.966-5.164 0-7.131l-3.618-3.617z"/><path fill="#2e7d32" d="m11.188 9.977l-1-0.004-0.013 3.16 3.16-0.013-0.004-1-1.442 0.006 5.262-5.262c0.763-0.764 1.778-1.184 2.858-1.184 1.079 0 2.094 0.42 2.857 1.184 0.764 0.763 1.185 1.778 1.185 2.858 0 1.079-0.421 2.094-1.185 2.858l-0.414 0.415 0.707 0.707 0.414-0.415c0.953-0.952 1.478-2.218 1.478-3.565s-0.525-2.613-1.478-3.565c-0.952-0.953-2.218-1.477-3.564-1.477-1.348 0-2.613 0.524-3.565 1.477l-5.262 5.262 0.006-1.442z"/><path fill="#37474f" d="m19.515 15.931l-6.871 6.872c-1.576 1.576-4.14 1.576-5.716 0-1.575-1.576-1.575-4.141 0-5.716l0.746-0.746-0.707-0.707-0.746 0.745c-1.965 1.966-1.965 5.165 0 7.131 0.983 0.982 2.274 1.475 3.565 1.475s2.583-0.492 3.565-1.475l6.871-6.872-0.707-0.707z"/></g></g></svg>
